<?xml version="1.0" standalone="no"?>
<!DOCTYPE svg PUBLIC "-//W3C//DTD SVG 20010904//EN"
 "http://www.w3.org/TR/2001/REC-SVG-20010904/DTD/svg10.dtd">
<svg version="1.0" xmlns="http://www.w3.org/2000/svg"
 width="244.000000pt" height="244.000000pt" viewBox="0 0 244.000000 244.000000"
 preserveAspectRatio="xMidYMid meet">

<g transform="translate(0.000000,244.000000) scale(0.100000,-0.100000)"
fill="#000000" stroke="none">
<path d="M20 1225 l0 -1205 1200 0 1200 0 0 1205 0 1205 -1200 0 -1200 0 0
-1205z m1822 627 c224 -228 224 -217 -13 -457 l-168 -169 -21 19 -21 19 167
167 c146 146 167 172 167 199 0 27 -19 51 -136 168 l-137 137 -60 -60 -60 -59
70 -71 c63 -63 84 -95 63 -95 -4 0 -40 33 -80 72 l-73 73 -52 -53 -53 -52 73
-73 c39 -40 72 -76 72 -80 0 -21 -32 0 -95 63 l-71 70 -44 -45 c-48 -49 -61
-53 -81 -29 -11 13 14 42 187 215 109 109 202 199 205 199 3 0 76 -71 161
-158z m-988 -715 c8 -13 3 -24 -29 -57 l-39 -40 74 -75 c41 -41 71 -78 67 -82
-4 -4 -41 26 -82 67 l-75 74 -55 -54 -55 -54 75 -76 c42 -42 72 -79 68 -83 -4
-4 -41 26 -83 68 l-75 75 -70 -70 -70 -70 137 -137 c117 -117 141 -136 168
-136 27 0 53 21 199 167 l167 167 19 -21 19 -21 -169 -168 c-240 -238 -229
-238 -460 -10 l-160 158 200 201 c110 110 204 199 209 197 5 -2 14 -11 20 -20z"/>
</g>
</svg>
